<svg width="12" height="12" viewBox="0 0 12 12" fill="none" xmlns="http://www.w3.org/2000/svg">
<path d="M8.41 7.74249C8.22757 7.65082 8.00532 7.72194 7.91 7.90249C7.82192 8.08643 7.89474 8.30711 8.075 8.40249C8.515 8.62749 8.765 8.90249 8.765 9.16749C8.765 9.73249 7.585 10.3625 6.005 10.3625C4.425 10.3625 3.24 9.73749 3.24 9.18749C3.24 8.92749 3.49 8.64749 3.93 8.42249C4.06195 8.36958 4.15264 8.24661 4.1642 8.10492C4.17576 7.96323 4.1062 7.82718 3.98457 7.75359C3.86294 7.67999 3.71015 7.6815 3.59 7.75749C2.98295 7.98629 2.55974 8.54151 2.5 9.18749C2.5 10.2975 4 11.1325 6 11.1325C8 11.1325 9.5 10.2975 9.5 9.18749C9.44578 8.53591 9.02162 7.97361 8.41 7.74249Z" fill="#424040"/>
<path fill-rule="evenodd" clip-rule="evenodd" d="M5.625 9.40749V7.24749C3.97845 7.04911 2.77126 5.60264 2.87063 3.94716C2.97 2.29168 4.34154 1 6 1C7.65846 1 9.03 2.29168 9.12937 3.94716C9.22874 5.60264 8.02155 7.04911 6.375 7.24749V9.40749C6.375 9.6146 6.20711 9.78249 6 9.78249C5.79289 9.78249 5.625 9.6146 5.625 9.40749ZM8.21211 3.22057C7.8409 2.32703 6.96757 1.74547 6 1.74749C4.68394 1.75024 3.61775 2.81643 3.615 4.13249C3.61298 5.10006 4.19454 5.97339 5.08808 6.3446C5.98161 6.71581 7.0108 6.51165 7.69498 5.82747C8.37916 5.14329 8.58332 4.1141 8.21211 3.22057Z" fill="#424040"/>
<path d="M4.795 4.68749C5.00211 4.68749 5.17 4.5196 5.17 4.31249C5.17 3.73811 5.63562 3.27249 6.21 3.27249C6.41711 3.27249 6.585 3.1046 6.585 2.89749C6.585 2.69038 6.41711 2.52249 6.21 2.52249C5.73394 2.52382 5.2779 2.7142 4.94221 3.05177C4.60652 3.38933 4.41867 3.84643 4.42 4.32249C4.42132 4.42062 4.46157 4.51421 4.5319 4.58267C4.60223 4.65112 4.69687 4.68883 4.795 4.68749Z" fill="#424040"/>
</svg>
